HIERARCHY
ROOT root
{
	OFFSET 0.000000 0.000000 0.000000
	CHANNELS 6 Xposition Yposition Zposition Zrotation Yrotation Xrotation
	JOINT lhip
	{
		OFFSET 0.058581 -0.082280 -0.017664
		CHANNELS 3 Zrotation Yrotation Xrotation
		JOINT lknee
		{
			OFFSET 0.043451 -0.386469 0.008037
			CHANNELS 3 Zrotation Yrotation Xrotation
			JOINT lankle
			{
				OFFSET -0.014790 -0.426874 -0.037428
				CHANNELS 3 Zrotation Yrotation Xrotation
				JOINT ltoe
				{
					OFFSET 0.041054 -0.060286 0.122042
					CHANNELS 3 Zrotation Yrotation Xrotation
					End Site
					{
						OFFSET 0.000000 0.000000 0.000000
					}
				}
			}
		}
	}
	JOINT rhip
	{
		OFFSET -0.060310 -0.090513 -0.013543
		CHANNELS 3 Zrotation Yrotation Xrotation
		JOINT rknee
		{
			OFFSET -0.043257 -0.383688 -0.004843
			CHANNELS 3 Zrotation Yrotation Xrotation
			JOINT rankle
			{
				OFFSET 0.019056 -0.420046 -0.034562
				CHANNELS 3 Zrotation Yrotation Xrotation
				JOINT rtoe
				{
					OFFSET -0.034840 -0.062106 0.130323
					CHANNELS 3 Zrotation Yrotation Xrotation
					End Site
					{
						OFFSET 0.000000 0.000000 0.000000
					}
				}
			}
		}
	}
	JOINT lowerback
	{
		OFFSET 0.004439 0.124404 -0.038385
		CHANNELS 3 Zrotation Yrotation Xrotation
		JOINT upperback
		{
			OFFSET 0.004488 0.137956 0.026820
			CHANNELS 3 Zrotation Yrotation Xrotation
			JOINT chest
			{
				OFFSET -0.002265 0.056032 0.002855
				CHANNELS 3 Zrotation Yrotation Xrotation
				JOINT lowerneck
				{
					OFFSET -0.013390 0.211636 -0.033468
					CHANNELS 3 Zrotation Yrotation Xrotation
					JOINT upperneck
					{
						OFFSET 0.010113 0.088937 0.050410
						CHANNELS 3 Zrotation Yrotation Xrotation
						End Site
						{
							OFFSET 0.000000 0.000000 0.000000
						}
					}
				}
				JOINT lclavicle
				{
					OFFSET 0.071702 0.114000 -0.018898
					CHANNELS 3 Zrotation Yrotation Xrotation
					JOINT lshoulder
					{
						OFFSET 0.122921 0.045205 -0.019046
						CHANNELS 3 Zrotation Yrotation Xrotation
						JOINT lelbow
						{
							OFFSET 0.255332 -0.015649 -0.022946
							CHANNELS 3 Zrotation Yrotation Xrotation
							JOINT lwrist
							{
								OFFSET 0.265709 0.012698 -0.007375
								CHANNELS 3 Zrotation Yrotation Xrotation
								End Site
								{
									OFFSET 0.000000 0.000000 0.000000
								}
							}
						}
					}
				}
				JOINT rclavicle
				{
					OFFSET -0.082954 0.112472 -0.023707
					CHANNELS 3 Zrotation Yrotation Xrotation
					JOINT rshoulder
					{
						OFFSET -0.113228 0.046853 -0.008472
						CHANNELS 3 Zrotation Yrotation Xrotation
						JOINT relbow
						{
							OFFSET -0.260127 -0.014369 -0.031269
							CHANNELS 3 Zrotation Yrotation Xrotation
							JOINT rwrist
							{
								OFFSET -0.269108 0.006794 -0.006027
								CHANNELS 3 Zrotation Yrotation Xrotation
								End Site
								{
									OFFSET 0.000000 0.000000 0.000000
								}
							}
						}
					}
				}
			}
		}
	}
}
MOTION
Frames: 10
Frame Time: 0.033333
-0.928895 -1.341434 0.994575 92.965558 -1.590614 84.291345 -4.131884 2.400683 7.715476 -0.110198 -6.658331 -0.245877 5.030072 12.307343 -10.774626 0.000000 -0.000000 0.000000 -1.382351 -4.345806 6.212185 -2.135111 -1.230464 -0.767089 1.158176 -10.869628 -10.703275 0.000000 -0.000000 0.000000 -3.842851 4.466598 4.891252 -1.842676 -2.181654 13.651564 -1.318070 -0.100841 -2.437101 4.147140 6.652129 -4.392711 6.689486 3.856712 9.901803 -30.356537 -9.523450 7.240790 -45.340242 -7.919955 8.376418 4.699279 -18.640635 -1.143480 0.337492 -1.285289 0.869295 32.111985 11.754196 12.579128 53.679359 8.692664 12.227027 -10.635427 22.305594 -11.112269 2.239234 4.343762 -8.623277 
-0.927730 -1.340253 0.994357 92.801256 -1.449123 84.530463 -4.079902 2.405817 7.690180 0.015526 -6.897208 -0.561002 4.772716 12.396247 -10.564574 0.000000 -0.000000 0.000000 -1.234196 -4.395091 6.082847 -2.252514 -1.151858 -0.940680 1.275259 -10.826218 -10.557132 0.000000 -0.000000 0.000000 -3.596679 4.390585 4.628347 -1.926124 -2.177395 13.596356 -1.450490 0.041200 -2.350909 4.209315 6.655221 -4.069059 6.591286 3.901159 9.581049 -30.032399 -9.164601 7.110162 -45.135022 -7.208292 8.893352 4.693963 -18.366340 -0.740809 2.001928 -0.916591 1.068802 31.961564 11.589851 12.366859 54.012921 8.584879 12.355023 -10.685787 22.232202 -11.015251 1.737892 4.223449 -8.718735 
-0.926892 -1.339259 0.994369 92.639256 -1.381578 84.598238 -4.027616 2.518191 7.697078 -0.045029 -6.765956 -0.587188 4.730397 12.378493 -10.484068 0.000000 -0.000000 0.000000 -1.249956 -4.427988 6.152370 -2.212969 -1.002681 -1.138535 1.407433 -10.818875 -10.494988 0.000000 -0.000000 0.000000 -3.491675 4.397778 4.622534 -1.957993 -2.135990 13.487895 -1.504027 0.084679 -2.283784 4.208458 6.644920 -3.973091 6.502723 3.921521 9.642874 -29.951461 -8.994720 7.387977 -44.658514 -6.612197 9.127251 4.459607 -18.335463 0.456791 1.797694 -0.786379 1.680453 31.942511 11.430250 12.299489 54.128044 8.525086 12.310583 -10.727327 22.342423 -10.894000 1.758757 4.226623 -8.962036 
-0.926384 -1.337754 0.994409 92.595844 -1.211064 84.662324 -3.911599 2.511413 7.516672 -0.124748 -6.794301 -0.258560 4.813790 12.331324 -10.708073 0.000000 -0.000000 0.000000 -1.084401 -4.488487 6.032155 -2.327767 -1.042704 -1.006415 1.439685 -11.015989 -10.478004 0.000000 -0.000000 0.000000 -3.387067 4.381190 4.657071 -1.902645 -2.171754 13.486937 -1.489280 0.099796 -2.284925 4.189417 6.617583 -3.856259 6.358151 4.000519 9.557309 -29.660996 -8.698935 7.428222 -44.274220 -6.094689 9.315495 4.058842 -18.446133 1.272049 0.909979 -0.392607 1.975788 31.739630 11.345512 12.066980 54.226851 8.282926 12.413176 -10.648725 22.777990 -10.693099 2.030438 4.244948 -9.211417 
-0.926414 -1.337073 0.994237 92.620312 -1.220740 84.710956 -3.995720 2.387287 7.384051 -0.148748 -6.725244 -0.089524 4.845020 12.384160 -10.832656 0.000000 -0.000000 0.000000 -1.169660 -4.451765 5.915745 -2.232307 -1.198114 -0.889405 1.390129 -11.062135 -10.559202 0.000000 -0.000000 0.000000 -3.362757 4.332464 4.639384 -1.950193 -2.166158 13.440217 -1.494750 0.075157 -2.171994 4.184088 6.748995 -3.934837 6.398962 3.950152 9.518514 -29.430475 -8.534443 7.368134 -44.316323 -6.080790 8.996721 4.343260 -18.451369 0.699036 0.471624 -1.018057 1.443754 31.717730 11.396744 12.103773 54.234134 8.327967 12.364733 -10.688143 22.829258 -10.652571 2.144703 4.464361 -9.186633 
-0.926219 -1.336075 0.994061 92.680582 -1.204980 84.666709 -4.124160 2.289497 7.378668 -0.085839 -6.702009 0.090624 4.934148 12.495558 -11.004702 0.000000 -0.000000 0.000000 -1.106489 -4.396998 5.834563 -2.389014 -1.234478 -0.620625 1.321178 -11.202111 -10.669050 0.000000 -0.000000 0.000000 -3.363244 4.339762 4.586734 -1.950169 -2.132994 13.531686 -1.498503 0.043140 -2.014231 4.251652 6.889536 -3.832552 6.468574 3.896385 9.362908 -29.212313 -8.335094 7.240851 -44.254111 -6.033641 8.760128 4.440671 -18.808109 0.282029 -0.090850 -1.134480 1.318880 31.732752 11.469049 12.033575 54.248878 8.320644 12.353253 -10.805502 22.965588 -10.666696 2.123748 4.414936 -9.034776 
-0.925843 -1.335283 0.993949 92.731004 -1.175902 84.519435 -4.097714 2.322238 7.561102 -0.199273 -6.611733 0.135870 4.941815 12.566451 -11.169338 0.000000 -0.000000 0.000000 -1.178782 -4.397856 5.981864 -2.320983 -1.283571 -0.509442 1.305957 -11.223667 -10.711972 0.000000 -0.000000 0.000000 -3.399522 4.394475 4.563160 -1.928195 -2.087151 13.690025 -1.449663 0.014508 -1.980534 4.376380 7.029744 -3.623657 6.637231 3.885172 9.324604 -29.281632 -8.314936 7.147703 -44.208052 -6.302647 8.272646 4.800324 -18.449697 -0.398700 -0.749268 -1.010126 1.161754 31.673215 11.472805 11.991480 54.372092 8.402284 12.353756 -10.923213 22.908053 -10.597915 2.418279 4.398027 -8.952874 
-0.925312 -1.334549 0.993970 92.691489 -1.128169 84.305757 -4.028888 2.440381 7.966127 -0.244808 -6.378966 -0.098282 4.923560 12.538787 -11.212191 0.000000 -0.000000 0.000000 -1.274895 -4.484225 6.271225 -2.225653 -1.420712 -0.510048 1.349797 -11.104672 -10.749643 0.000000 -0.000000 0.000000 -3.485198 4.451469 4.503403 -1.901338 -1.985278 13.942782 -1.361496 0.073965 -2.013608 4.702960 7.358702 -3.423391 6.887089 4.035518 9.393491 -29.425925 -8.403310 7.150990 -44.225060 -6.736368 7.445585 5.385987 -18.270573 -1.785542 -1.188980 -0.980575 0.467373 31.675249 11.503032 12.101247 54.473161 8.628330 12.216666 -11.097989 22.658329 -10.851263 2.591977 4.371152 -8.828529 
-0.924676 -1.333695 0.994017 92.653117 -1.068178 84.141569 -3.985247 2.535424 8.140741 -0.357597 -6.077721 0.007180 4.899609 12.528067 -11.289279 0.000000 -0.000000 0.000000 -1.308661 -4.643595 6.519998 -2.193065 -1.596378 -0.569539 1.376258 -10.969659 -10.701864 0.000000 -0.000000 0.000000 -3.515741 4.539095 4.476430 -1.936606 -1.938155 13.959730 -1.266648 0.086632 -2.126617 5.131836 7.556689 -2.986292 7.151732 4.394360 9.653015 -29.605193 -8.399132 7.003608 -44.437520 -7.191991 6.938294 5.759625 -18.020982 -2.756265 -1.173364 -0.612723 0.097998 31.668459 11.377622 12.092971 54.475333 8.688358 12.203023 -10.883748 22.529489 -10.795744 2.451475 4.178322 -8.568973 
-0.924094 -1.332949 0.993853 92.637403 -0.941461 83.993340 -3.946824 2.360762 8.264311 -0.276754 -6.323522 0.260911 5.012000 12.579715 -11.514351 0.000000 -0.000000 0.000000 -1.205259 -4.703500 6.681875 -2.218530 -1.738735 -0.531809 1.267319 -11.076207 -10.719720 0.000000 -0.000000 0.000000 -3.446861 4.565837 4.424729 -1.946587 -1.897906 13.902290 -1.235188 0.114908 -2.123914 5.525761 7.636688 -2.672145 7.524921 4.582687 10.067972 -29.745345 -8.473682 6.864147 -44.701098 -7.666880 6.688772 5.803468 -17.970844 -3.435190 -1.040964 -0.791245 -0.676422 31.603717 11.447041 12.219162 54.554209 8.703229 12.343032 -10.833897 22.476470 -10.736879 2.482242 4.239917 -8.808312 
